<?xml version="1.0" standalone="no"?><!DOCTYPE svg PUBLIC "-//W3C//DTD SVG 1.1//EN" "http://www.w3.org/Graphics/SVG/1.1/DTD/svg11.dtd"><svg t="1699435344203" class="icon" viewBox="0 0 1025 1024" version="1.1" xmlns="http://www.w3.org/2000/svg" p-id="1654" width="100%" height="100%" xmlns:xlink="http://www.w3.org/1999/xlink"><path d="M586.7125 1024H438.966226a56.284295 56.284295 0 0 1-50.527946-36.456873l-18.548233-55.6447a90.822385 90.822385 0 0 0-35.817279-46.690381 90.822385 90.822385 0 0 0-57.563483 0l-55.6447 19.827422a56.923889 56.923889 0 0 1-58.203078-17.908639L69.92034 768.162297A59.482266 59.482266 0 0 1 64.803586 704.202871l30.700524-49.888352a94.65995 94.65995 0 0 0 13.431479-57.563483 91.461979 91.461979 0 0 0-36.456872-46.050786l-46.690381-28.781742A58.203077 58.203077 0 0 1 0.84416 463.715431l33.898496-147.746274a57.563483 57.563483 0 0 1 46.050786-42.213221l57.563483-6.395942A90.822385 90.822385 0 0 0 192.722437 242.415817a95.299544 95.299544 0 0 0 12.152291-57.563483L195.920409 128.56804a57.563483 57.563483 0 0 1 30.06093-57.563484L359.016944 7.045131a57.563483 57.563483 0 0 1 63.959426 10.873102l37.736061 39.654844A87.624413 87.624413 0 0 0 512.519566 83.796442a88.903602 88.903602 0 0 0 51.807135-26.223365l40.934032-41.573627a58.203077 58.203077 0 0 1 63.959426-10.873102l133.035606 63.959426a57.563483 57.563483 0 0 1 30.06093 55.6447l-6.395943 58.203078a94.020356 94.020356 0 0 0 12.152291 57.563483 89.543196 89.543196 0 0 0 52.446729 24.944176l56.923889 6.395942a57.563483 57.563483 0 0 1 46.050786 42.213221L1024.194972 463.715431a58.203077 58.203077 0 0 1-23.664988 58.203077l-48.609163 31.340119a90.18279 90.18279 0 0 0-36.456873 45.411192 94.020356 94.020356 0 0 0 13.431479 57.563483L960.235546 704.202871a58.842672 58.842672 0 0 1-3.197971 63.959426l-92.101573 118.324938a58.203077 58.203077 0 0 1-59.482266 17.269045l-54.365512-19.187828a88.903602 88.903602 0 0 0-57.563483 0 90.822385 90.822385 0 0 0-35.177684 46.690381l-19.187828 55.6447a56.284295 56.284295 0 0 1-50.527946 36.456873z m-278.223502-191.878277a108.731024 108.731024 0 0 1 46.690381 9.593914 135.593983 135.593983 0 0 1 60.12186 74.832528l18.548233 55.6447a11.512697 11.512697 0 0 0 5.116754 3.837566h147.10668a11.512697 11.512697 0 0 0 5.116754-3.837566l19.187827-55.6447a137.512765 137.512765 0 0 1 59.482266-74.192934 133.6752 133.6752 0 0 1 95.299545 0l54.365511 19.827422h5.116755l91.461978-117.685343a14.071074 14.071074 0 0 0 0-8.314726l-30.700524-49.248758a139.431548 139.431548 0 0 1-19.827422-93.380761A137.512765 137.512765 0 0 1 924.418268 512.324594l48.609163-31.340119a13.431479 13.431479 0 0 0 0-7.675131l-30.06093-146.467085a12.152291 12.152291 0 0 0-5.116754-6.395942l-56.284295-6.395943a134.954388 134.954388 0 0 1-85.066036-43.492409 139.431548 139.431548 0 0 1-21.746205-92.741168l6.395943-58.842671a12.791885 12.791885 0 0 0-3.837566-7.035537l-133.035605-63.959426-3.837566 2.558377-39.654844 40.934033A134.314794 134.314794 0 0 1 512.519566 132.405605a133.035606 133.035606 0 0 1-86.345225-40.934032L384.600714 49.897946h-3.837565l-133.6752 63.959426a13.431479 13.431479 0 0 0 0 7.035537l3.837566 58.842671a140.071142 140.071142 0 0 1-21.746205 92.741168 136.233577 136.233577 0 0 1-85.066036 43.492409l-57.563484 4.47716a15.350262 15.350262 0 0 0-4.477159 5.116754L49.453324 474.588533a12.791885 12.791885 0 0 0 0 7.675131l51.16754 30.06093a136.873171 136.873171 0 0 1 57.563483 76.111717 139.431548 139.431548 0 0 1-19.827422 93.380761l-30.700524 49.888352a15.350262 15.350262 0 0 0 0 8.314726l92.101573 117.685343h5.756348l51.167541-17.269045a145.187896 145.187896 0 0 1 51.807135-8.314725z m0 0" fill="#080103" p-id="1655"></path><path d="M512.519566 290.385387A221.939207 221.939207 0 1 0 734.458773 512.324594 221.939207 221.939207 0 0 0 512.519566 290.385387z m0 393.990062A172.690449 172.690449 0 1 1 685.210015 512.324594 172.690449 172.690449 0 0 1 512.519566 684.375449z" fill="#080103" p-id="1656"></path></svg>